HIERARCHY
ROOT Hips
{
  OFFSET 91.2244 90.026 26.1335
  CHANNELS 6 Xposition Yposition Zposition Zrotation Xrotation Yrotation
  JOINT RightUpLeg
  {
    OFFSET -9.26543 -1.55198 -0.00276407
    CHANNELS 3 Zrotation Xrotation Yrotation
    JOINT RightLeg
    {
      OFFSET 0.00706465 -41.889 0.0798854
      CHANNELS 3 Zrotation Xrotation Yrotation
      JOINT RightFoot
      {
        OFFSET -1.51766 -41.6901 -0.263239
        CHANNELS 3 Zrotation Xrotation Yrotation
        End Site
        {
          OFFSET 0 -7.69 17.5
        }
      }
    }
  }
  JOINT LeftUpLeg
  {
    OFFSET 9.33035 -1.6331 0.002402
    CHANNELS 3 Zrotation Xrotation Yrotation
    JOINT LeftLeg
    {
      OFFSET 0.0774 -41.8788 0.006528
      CHANNELS 3 Zrotation Xrotation Yrotation
      JOINT LeftFoot
      {
        OFFSET 0.406189 -42.2791 -0.67832
        CHANNELS 3 Zrotation Xrotation Yrotation
        End Site
        {
          OFFSET 0 -7.69 17.5
        }
      }
    }
  }
  JOINT Spine
  {
    OFFSET 0.0210118 14.3125 0.030377
    CHANNELS 3 Zrotation Xrotation Yrotation
    JOINT Spine1
    {
      OFFSET -2.02627e-05 9.71981 0.0121962
      CHANNELS 3 Zrotation Xrotation Yrotation
      JOINT Spine2
      {
        OFFSET 0.023812 10.122 0.0180119
        CHANNELS 3 Zrotation Xrotation Yrotation
        JOINT Spine3
        {
          OFFSET 0.00443321 9.71861 0.0143853
          CHANNELS 3 Zrotation Xrotation Yrotation
          JOINT Neck
          {
            OFFSET -0.025003 10.3767 0.0233355
            CHANNELS 3 Zrotation Xrotation Yrotation
            JOINT Head
            {
              OFFSET -0.00975384 9.4764 0.045578
              CHANNELS 3 Zrotation Xrotation Yrotation
              End Site
              {
                OFFSET 0 15.95 0
              }
            }
          }
          JOINT RightShoulder
          {
            OFFSET -3.18407 6.9358 0.0313291
            CHANNELS 3 Zrotation Xrotation Yrotation
            JOINT RightArm
            {
              OFFSET -12.7601 0.0147069 0.0234973
              CHANNELS 3 Zrotation Xrotation Yrotation
              JOINT RightForeArm
              {
                OFFSET -26.4708 -0.032683 0.042111
                CHANNELS 3 Zrotation Xrotation Yrotation
                JOINT RightHand
                {
                  OFFSET -26.0234 -0.0283521 0.00388791
                  CHANNELS 3 Zrotation Xrotation Yrotation
                  JOINT RightHandThumb1
                  {
                    OFFSET -2.48905 0.190105 3.12053
                    CHANNELS 3 Zrotation Xrotation Yrotation
                    JOINT RightHandThumb2
                    {
                      OFFSET -3.68274 0 0
                      CHANNELS 3 Zrotation Xrotation Yrotation
                      JOINT RightHandThumb3
                      {
                        OFFSET -2.55832 0 0
                        CHANNELS 3 Zrotation Xrotation Yrotation
                        End Site
                        {
                          OFFSET -2.194 0 0
                        }
                      }
                    }
                  }
                  JOINT RightInHandIndex
                  {
                    OFFSET -3.22368 0.508421 1.97842
                    CHANNELS 3 Zrotation Xrotation Yrotation
                    JOINT RightHandIndex1
                    {
                      OFFSET -5.21684 -0.091368 0.999158
                      CHANNELS 3 Zrotation Xrotation Yrotation
                      JOINT RightHandIndex2
                      {
                        OFFSET -3.61937 0 0
                        CHANNELS 3 Zrotation Xrotation Yrotation
                        JOINT RightHandIndex3
                        {
                          OFFSET -2.0521 0 0
                          CHANNELS 3 Zrotation Xrotation Yrotation
                          End Site
                          {
                            OFFSET -1.805 0 0
                          }
                        }
                      }
                    }
                  }
                  JOINT RightInHandMiddle
                  {
                    OFFSET -3.38211 0.517263 0.756737
                    CHANNELS 3 Zrotation Xrotation Yrotation
                    JOINT RightHandMiddle1
                    {
                      OFFSET -5.17411 -0.084 0.313895
                      CHANNELS 3 Zrotation Xrotation Yrotation
                      JOINT RightHandMiddle2
                      {
                        OFFSET -3.94947 0 0
                        CHANNELS 3 Zrotation Xrotation Yrotation
                        JOINT RightHandMiddle3
                        {
                          OFFSET -2.47579 0 0
                          CHANNELS 3 Zrotation Xrotation Yrotation
                          End Site
                          {
                            OFFSET -1.975 0 0
                          }
                        }
                      }
                    }
                  }
                  JOINT RightInHandRing
                  {
                    OFFSET -3.36516 0.537895 -0.128947
                    CHANNELS 3 Zrotation Xrotation Yrotation
                    JOINT RightHandRing1
                    {
                      OFFSET -4.63474 -0.022105 -0.478947
                      CHANNELS 3 Zrotation Xrotation Yrotation
                      JOINT RightHandRing2
                      {
                        OFFSET -3.44238 0 0
                        CHANNELS 3 Zrotation Xrotation Yrotation
                        JOINT RightHandRing3
                        {
                          OFFSET -2.3881 0 0
                          CHANNELS 3 Zrotation Xrotation Yrotation
                          End Site
                          {
                            OFFSET -1.857 0 0
                          }
                        }
                      }
                    }
                  }
                  JOINT RightInHandPinky
                  {
                    OFFSET -3.16105 0.469368 -1.20179
                    CHANNELS 3 Zrotation Xrotation Yrotation
                    JOINT RightHandPinky1
                    {
                      OFFSET -4.14105 -0.022105 -1.09053
                      CHANNELS 3 Zrotation Xrotation Yrotation
                      JOINT RightHandPinky2
                      {
                        OFFSET -2.75653 0 0
                        CHANNELS 3 Zrotation Xrotation Yrotation
                        JOINT RightHandPinky3
                        {
                          OFFSET -1.74189 0 0
                          CHANNELS 3 Zrotation Xrotation Yrotation
                          End Site
                          {
                            OFFSET -1.645 0 0
                          }
                        }
                      }
                    }
                  }
                }
              }
            }
          }
          JOINT LeftShoulder
          {
            OFFSET 3.21192 6.92101 0.01407
            CHANNELS 3 Zrotation Xrotation Yrotation
            JOINT LeftArm
            {
              OFFSET 12.7303 -0.00466279 0.011464
              CHANNELS 3 Zrotation Xrotation Yrotation
              JOINT LeftForeArm
              {
                OFFSET 26.497 -0.127446 0.0273404
                CHANNELS 3 Zrotation Xrotation Yrotation
                JOINT LeftHand
                {
                  OFFSET 26.0093 -0.0453415 -0.0774742
                  CHANNELS 3 Zrotation Xrotation Yrotation
                  JOINT LeftHandThumb1
                  {
                    OFFSET 2.48905 0.190105 3.12053
                    CHANNELS 3 Zrotation Xrotation Yrotation
                    JOINT LeftHandThumb2
                    {
                      OFFSET 3.68274 0 0
                      CHANNELS 3 Zrotation Xrotation Yrotation
                      JOINT LeftHandThumb3
                      {
                        OFFSET 2.55832 0 0
                        CHANNELS 3 Zrotation Xrotation Yrotation
                        End Site
                        {
                          OFFSET 2.194 0 0
                        }
                      }
                    }
                  }
                  JOINT LeftInHandIndex
                  {
                    OFFSET 3.22368 0.508421 1.97842
                    CHANNELS 3 Zrotation Xrotation Yrotation
                    JOINT LeftHandIndex1
                    {
                      OFFSET 5.21684 -0.091368 0.999158
                      CHANNELS 3 Zrotation Xrotation Yrotation
                      JOINT LeftHandIndex2
                      {
                        OFFSET 3.61937 0 0
                        CHANNELS 3 Zrotation Xrotation Yrotation
                        JOINT LeftHandIndex3
                        {
                          OFFSET 2.0521 0 0
                          CHANNELS 3 Zrotation Xrotation Yrotation
                          End Site
                          {
                            OFFSET 1.805 0 0
                          }
                        }
                      }
                    }
                  }
                  JOINT LeftInHandMiddle
                  {
                    OFFSET 3.38211 0.517263 0.756737
                    CHANNELS 3 Zrotation Xrotation Yrotation
                    JOINT LeftHandMiddle1
                    {
                      OFFSET 5.17411 -0.084 0.313895
                      CHANNELS 3 Zrotation Xrotation Yrotation
                      JOINT LeftHandMiddle2
                      {
                        OFFSET 3.94947 0 0
                        CHANNELS 3 Zrotation Xrotation Yrotation
                        JOINT LeftHandMiddle3
                        {
                          OFFSET 2.47579 0 0
                          CHANNELS 3 Zrotation Xrotation Yrotation
                          End Site
                          {
                            OFFSET 1.975 0 0
                          }
                        }
                      }
                    }
                  }
                  JOINT LeftInHandRing
                  {
                    OFFSET 3.36516 0.537895 -0.128947
                    CHANNELS 3 Zrotation Xrotation Yrotation
                    JOINT LeftHandRing1
                    {
                      OFFSET 4.63474 -0.022105 -0.478947
                      CHANNELS 3 Zrotation Xrotation Yrotation
                      JOINT LeftHandRing2
                      {
                        OFFSET 3.44238 0 0
                        CHANNELS 3 Zrotation Xrotation Yrotation
                        JOINT LeftHandRing3
                        {
                          OFFSET 2.3881 0 0
                          CHANNELS 3 Zrotation Xrotation Yrotation
                          End Site
                          {
                            OFFSET 1.857 0 0
                          }
                        }
                      }
                    }
                  }
                  JOINT LeftInHandPinky
                  {
                    OFFSET 3.16105 0.469368 -1.20179
                    CHANNELS 3 Zrotation Xrotation Yrotation
                    JOINT LeftHandPinky1
                    {
                      OFFSET 4.14105 -0.022105 -1.09053
                      CHANNELS 3 Zrotation Xrotation Yrotation
                      JOINT LeftHandPinky2
                      {
                        OFFSET 2.75653 0 0
                        CHANNELS 3 Zrotation Xrotation Yrotation
                        JOINT LeftHandPinky3
                        {
                          OFFSET 1.74189 0 0
                          CHANNELS 3 Zrotation Xrotation Yrotation
                          End Site
                          {
                            OFFSET 1.645 0 0
                          }
                        }
                      }
                    }
                  }
                }
              }
            }
          }
        }
      }
    }
  }
}
MOTION
Frames:	5
Frame Time:	0.00833333
97.1649 89.7851 20.7682 20.6856 -23.9216 -176.467 25.2885 -46.5164 24.9151 0.187613 12.4303 16.0761 9.47454 8.07258 5.44989 46.8798 -22.053 56.9483 -1.48514 25.8064 -18.8759 -10.8009 -10.7617 40.0289 -0.729637 5.05914 -14.9332 -0.303026 1.21615 -3.83174 -0.455475 1.99427 -6.29411 -0.190781 0.560659 1.94995 -0.189737 0.584959 4.61597 -6.84583 9.84192 37.8052 -0.954165 -11.0491 2.40522 50.3127 -44.6234 8.21847 63.5926 -15.2596 104.046 -27.1316 5.8338 5.78878 28.184 10.7294 19.1592 -9.86349e-16 1.27222e-14 -10 4.35126e-15 6.36111e-15 -10 1.98785e-16 3.18055e-15 7.55382e-15 19.9818 0.871897 2.3964 24 -3.18055e-15 -3.18055e-15 20 -6.36111e-15 -1.27222e-14 1.98785e-16 3.18055e-15 7.55382e-15 20 -6.36111e-15 1.27222e-14 24 6.36111e-15 -1.27222e-14 20 -6.36111e-15 -1.59028e-14 1.98785e-16 3.18055e-15 7.55382e-15 19.9748 -1.02565 -2.81938 24 -3.18055e-15 -3.18055e-15 20 -4.77083e-15 -1.90833e-14 1.98785e-16 3.18055e-15 7.55382e-15 19.7815 -3.00948 -8.30515 24 6.36111e-15 -3.18055e-15 20 -1.59028e-15 -1.90833e-14 3.78627 -18.6199 -13.6037 -0.0819192 39.0198 -130.559 31.6469 -8.48159 -14.5177 38.7192 5.42233 34.5468 -28.184 10.7294 -19.1592 8.14169e-15 -9.54166e-15 10 4.35126e-15 -6.36111e-15 10 -6.36111e-15 -7.95139e-16 1.59028e-15 -19.9818 0.871897 -2.3964 -24 0 -1.59028e-15 -20 0 -4.77083e-15 -6.36111e-15 -7.95139e-16 1.59028e-15 -20 1.59028e-15 -4.77083e-15 -24 0 4.77083e-15 -20 -1.59028e-15 2.18663e-15 -6.36111e-15 -7.95139e-16 1.59028e-15 -19.9748 -1.02565 2.81938 -24 4.77083e-15 7.95139e-16 -20 0 -1.19271e-15 -6.36111e-15 -7.95139e-16 1.59028e-15 -19.7815 -3.00948 8.30515 -24 -4.77083e-15 3.97569e-15 -20 -2.38542e-15 -3.57812e-15 
97.1634 89.7862 20.7853 20.7221 -23.9118 -176.34 25.1899 -46.5858 24.9067 0.22498 12.4997 15.9575 9.47465 8.02099 5.42017 46.8917 -22.1797 56.958 -1.42779 25.8241 -18.9401 -10.7923 -10.7365 40.0054 -0.70226 5.06538 -15.0009 -0.29686 1.219 -3.84884 -0.444942 1.99953 -6.32082 -0.189971 0.561633 1.95052 -0.190355 0.585413 4.70455 -6.87825 9.87811 37.8278 -0.99673 -11.0458 2.6183 50.6317 -44.4171 8.37329 63.5301 -15.2337 103.952 -27.2376 5.72561 5.80972 28.184 10.7294 19.1592 3.79044e-15 3.18055e-15 -10 -5.60818e-16 -3.18055e-15 -10 1.19271e-15 0 4.17448e-15 19.9818 0.871897 2.3964 24 0 6.36111e-15 20 -1.43125e-14 -0 1.19271e-15 0 4.17448e-15 20 3.18055e-15 4.77083e-15 24 -6.36111e-15 9.54166e-15 20 -9.54166e-15 -9.54166e-15 1.19271e-15 0 4.17448e-15 19.9748 -1.02565 -2.81938 24 -3.18055e-15 6.36111e-15 20 4.77083e-15 -6.36111e-15 1.19271e-15 0 4.17448e-15 19.7815 -3.00948 -8.30515 24 -7.95139e-15 -0 20 1.27222e-14 -9.54166e-15 3.8166 -18.4976 -13.3781 -0.143472 39.0238 -130.39 31.6349 -8.59509 -14.4285 38.9819 5.20207 34.4947 -28.184 10.7294 -19.1592 2.6688e-15 3.18055e-15 10 7.02006e-15 -3.18055e-15 10 -4.41391e-32 -1.59028e-15 -1.59028e-15 -19.9818 0.871897 -2.3964 -24 0 8.74653e-15 -20 3.18055e-15 3.97569e-15 -4.41391e-32 -1.59028e-15 -1.59028e-15 -20 -3.18055e-15 1.90833e-14 -24 -6.36111e-15 7.15625e-15 -20 -1.59028e-15 6.36111e-15 -4.41391e-32 -1.59028e-15 -1.59028e-15 -19.9748 -1.02565 2.81938 -24 0 1.59028e-15 -20 -3.18055e-15 2.5842e-15 -4.41391e-32 -1.59028e-15 -1.59028e-15 -19.7815 -3.00948 8.30515 -24 -3.97569e-15 5.96354e-15 -20 -7.95139e-16 3.77691e-15 
97.1613 89.7874 20.8044 20.8831 -23.8701 -175.843 24.8819 -46.7533 24.4401 0.25638 12.5593 15.8539 9.47602 7.96567 5.3879 46.921 -22.5291 56.7262 -1.36556 25.8492 -19.0147 -10.782 -10.7124 39.9756 -0.600512 5.10117 -15.141 -0.273336 1.23346 -3.88375 -0.405145 2.02531 -6.37536 -0.18916 0.562579 1.95067 -0.189511 0.586016 4.64318 -6.87375 9.90775 37.8206 -1.05018 -11.0545 2.66464 50.9801 -44.1867 8.51011 63.4528 -15.2073 103.86 -27.3499 5.59654 5.81601 28.184 10.7294 19.1592 3.22962e-15 0 -10 2.10798e-15 -6.36111e-15 -10 -8.82781e-32 3.18055e-15 1.59028e-15 19.9818 0.871897 2.3964 24 3.18055e-15 -0 20 -4.77083e-15 -0 -8.82781e-32 3.18055e-15 1.59028e-15 20 -3.18055e-15 6.36111e-15 24 3.18055e-15 -9.54166e-15 20 1.59028e-15 -6.36111e-15 -8.82781e-32 3.18055e-15 1.59028e-15 19.9748 -1.02565 -2.81938 24 -3.18055e-15 -6.36111e-15 20 -3.18055e-15 -6.36111e-15 -8.82781e-32 3.18055e-15 1.59028e-15 19.7815 -3.00948 -8.30515 24 -4.77083e-15 -6.36111e-15 20 9.54166e-15 -1.27222e-14 3.82617 -18.3708 -13.3219 -0.205139 39.0099 -130.209 31.6068 -8.71639 -14.3302 39.2515 4.95709 34.4313 -28.184 10.7294 -19.1592 4.35126e-15 -6.36111e-15 10 -3.79044e-15 3.18055e-15 10 3.18055e-15 2.38542e-15 1.59028e-15 -19.9818 0.871897 -2.3964 -24 -3.18055e-15 7.95139e-15 -20 0 1.19271e-15 3.18055e-15 2.38542e-15 1.59028e-15 -20 -1.59028e-15 2.06736e-14 -24 -3.18055e-15 1.11319e-14 -20 1.59028e-15 -6.36111e-15 3.18055e-15 2.38542e-15 1.59028e-15 -19.9748 -1.02565 2.81938 -24 -3.18055e-15 1.03368e-14 -20 0 -1.19271e-15 3.18055e-15 2.38542e-15 1.59028e-15 -19.7815 -3.00948 8.30515 -24 -4.77083e-15 9.14409e-15 -20 -2.38542e-15 2.88238e-15 
97.1592 89.7887 20.8302 20.9405 -23.8636 -175.651 24.7403 -46.8489 24.3452 0.303946 12.635 15.7425 9.47064 7.91248 5.35692 46.9391 -22.7205 56.7283 -1.2858 25.8776 -19.1041 -10.7698 -10.6807 39.9493 -0.56884 5.12611 -15.0754 -0.265477 1.24169 -3.86661 -0.392137 2.0397 -6.34863 -0.187985 0.563508 1.94496 -0.188151 0.586687 4.52644 -6.86298 9.92498 37.7989 -1.11514 -11.0703 2.66195 51.3475 -43.9347 8.64137 63.3567 -15.2005 103.783 -27.4649 5.43473 5.79962 28.184 10.7294 19.1592 -2.24327e-15 -1.27222e-14 -10 -1.02497e-14 -3.18055e-15 -10 -5.56597e-15 -3.18055e-15 -1.23246e-14 19.9818 0.871897 2.3964 24 3.18055e-15 1.27222e-14 20 -1.59028e-15 9.54166e-15 -5.56597e-15 -3.18055e-15 -1.23246e-14 20 -9.54166e-15 4.77083e-15 24 0 6.36111e-15 20 -7.95139e-15 1.90833e-14 -5.56597e-15 -3.18055e-15 -1.23246e-14 19.9748 -1.02565 -2.81938 24 1.59028e-15 1.59028e-14 20 3.18055e-15 2.8625e-14 -5.56597e-15 -3.18055e-15 -1.23246e-14 19.7815 -3.00948 -8.30515 24 -4.77083e-15 2.54444e-14 20 7.95139e-15 2.22639e-14 3.82476 -18.2411 -13.3135 -0.270729 38.9878 -130.027 31.5779 -8.83039 -14.2099 39.5383 4.68124 34.3719 -28.184 10.7294 -19.1592 -1.29185e-14 0 10 1.12164e-15 -6.36111e-15 10 -1.27222e-14 0 -0 -19.9818 0.871897 -2.3964 -24 1.59028e-15 -0 -20 3.18055e-15 1.59028e-15 -1.27222e-14 0 -0 -20 3.18055e-15 -7.95139e-15 -24 0 -1.59028e-15 -20 0 5.96354e-16 -1.27222e-14 0 -0 -19.9748 -1.02565 2.81938 -24 3.18055e-15 -1.59028e-15 -20 1.59028e-15 -1.98785e-16 -1.27222e-14 0 -0 -19.7815 -3.00948 8.30515 -24 2.38542e-15 -3.57812e-15 -20 0 -5.36719e-15 
97.1568 89.79 20.8604 21.0274 -23.8519 -175.388 24.5616 -46.956 24.1509 0.343763 12.7111 15.646 9.46188 7.84971 5.32316 46.955 -22.9613 56.6928 -1.19482 25.9021 -19.2018 -10.7507 -10.6447 39.9167 -0.543874 5.24238 -14.4252 -0.256648 1.27392 -3.69977 -0.378836 2.0948 -6.08809 -0.179177 0.564444 1.90304 -0.178952 0.587926 3.64207 -6.70833 9.85089 37.585 -1.24523 -11.156 1.67214 51.742 -43.6503 8.78516 63.0153 -15.4358 104.231 -27.3462 5.25508 5.14554 28.184 10.7294 19.1592 -1.12164e-15 -6.36111e-15 -10 2.6688e-15 -3.18055e-15 -10 1.32417e-31 3.18055e-15 -2.38542e-15 19.9818 0.871897 2.3964 24 -1.27222e-14 9.54166e-15 20 -3.18055e-15 -9.54166e-15 1.32417e-31 3.18055e-15 -2.38542e-15 20 6.36111e-15 -1.59028e-15 24 0 -0 20 -7.95139e-15 3.18055e-15 1.32417e-31 3.18055e-15 -2.38542e-15 19.9748 -1.02565 -2.81938 24 -6.36111e-15 3.18055e-15 20 -3.18055e-15 -0 1.32417e-31 3.18055e-15 -2.38542e-15 19.7815 -3.00948 -8.30515 24 4.77083e-15 -0 20 8.74653e-15 -0 3.63387 -18.2721 -14.303 -0.359489 38.9777 -129.822 31.5488 -8.9344 -14.0858 39.8376 4.38833 34.318 -28.184 10.7294 -19.1592 -2.53352e-15 -2.22639e-14 10 1.12164e-15 -6.36111e-15 10 3.18055e-15 3.18055e-15 -0 -19.9818 0.871897 -2.3964 -24 3.18055e-15 -6.36111e-15 -20 -3.18055e-15 -3.18055e-15 3.18055e-15 3.18055e-15 -0 -20 6.36111e-15 -1.43125e-14 -24 3.18055e-15 -1.51076e-14 -20 1.59028e-15 -4.17448e-15 3.18055e-15 3.18055e-15 -0 -19.9748 -1.02565 2.81938 -24 1.59028e-15 -6.36111e-15 -20 0 -1.98785e-15 3.18055e-15 3.18055e-15 -0 -19.7815 -3.00948 8.30515 -24 1.59028e-15 -3.57812e-15 -20 -7.95139e-16 -4.67144e-15 
